<?xml version="1.0" encoding="UTF-8" standalone="no"?>
<!DOCTYPE svg PUBLIC "-//W3C//DTD SVG 1.1//EN"
 "http://www.w3.org/Graphics/SVG/1.1/DTD/svg11.dtd">
<!-- Generated by graphviz version 2.40.1 (20161225.0304)
 -->
<!-- Title: state transitions Pages: 1 -->
<svg width="369pt" height="434pt"
 viewBox="0.00 0.00 368.92 434.00" xmlns="http://www.w3.org/2000/svg" xmlns:xlink="http://www.w3.org/1999/xlink">
<g id="graph0" class="graph" transform="scale(1 1) rotate(0) translate(4 430)">
<title>state transitions</title>
<polygon fill="#ffffff" stroke="transparent" points="-4,4 -4,-430 364.92,-430 364.92,4 -4,4"/>
<g id="clust1" class="cluster state regular">
<title>cluster_state</title>
<path fill="none" stroke="#000000" stroke-width="2" d="M20,-8C20,-8 277,-8 277,-8 283,-8 289,-14 289,-20 289,-20 289,-406 289,-406 289,-412 283,-418 277,-418 277,-418 20,-418 20,-418 14,-418 8,-412 8,-406 8,-406 8,-20 8,-20 8,-14 14,-8 20,-8"/>
<text text-anchor="start" x="135.4944" y="-399.2" font-family="Helvetica,sans-Serif" font-size="12.00" fill="#000000">state</text>
</g>
<!-- state -->
<!-- STATE_IDLE -->
<g id="node2" class="node state regular">
<title>STATE_IDLE</title>
<polygon fill="#ffffff" fill-opacity="0.003922" stroke="transparent" stroke-width="2" points="191,-380 97,-380 97,-344 191,-344 191,-380"/>
<text text-anchor="start" x="107.994" y="-358.2" font-family="Helvetica,sans-Serif" font-size="12.00" fill="#000000">STATE_IDLE</text>
<path fill="none" stroke="#000000" stroke-width="2" d="M109.3333,-345C109.3333,-345 178.6667,-345 178.6667,-345 184.3333,-345 190,-350.6667 190,-356.3333 190,-356.3333 190,-367.6667 190,-367.6667 190,-373.3333 184.3333,-379 178.6667,-379 178.6667,-379 109.3333,-379 109.3333,-379 103.6667,-379 98,-373.3333 98,-367.6667 98,-367.6667 98,-356.3333 98,-356.3333 98,-350.6667 103.6667,-345 109.3333,-345"/>
</g>
<!-- STATE_A -->
<g id="node3" class="node state regular">
<title>STATE_A</title>
<polygon fill="#ffffff" fill-opacity="0.003922" stroke="transparent" stroke-width="2" points="140.5,-298 65.5,-298 65.5,-262 140.5,-262 140.5,-298"/>
<text text-anchor="start" x="76.8282" y="-276.2" font-family="Helvetica,sans-Serif" font-size="12.00" fill="#000000">STATE_A</text>
<path fill="none" stroke="#000000" stroke-width="2" d="M77.8333,-263C77.8333,-263 128.1667,-263 128.1667,-263 133.8333,-263 139.5,-268.6667 139.5,-274.3333 139.5,-274.3333 139.5,-285.6667 139.5,-285.6667 139.5,-291.3333 133.8333,-297 128.1667,-297 128.1667,-297 77.8333,-297 77.8333,-297 72.1667,-297 66.5,-291.3333 66.5,-285.6667 66.5,-285.6667 66.5,-274.3333 66.5,-274.3333 66.5,-268.6667 72.1667,-263 77.8333,-263"/>
</g>
<!-- STATE_IDLE&#45;&gt;STATE_A -->
<g id="edge1" class="edge transition">
<title>STATE_IDLE&#45;&gt;STATE_A</title>
<path fill="none" stroke="#000000" d="M129.8963,-343.688C126.2625,-338.4714 122.5614,-332.6633 119.655,-327 116.5942,-321.0359 113.8612,-314.3794 111.5377,-307.9952"/>
<polygon fill="#000000" stroke="#000000" points="114.7795,-306.6577 108.2354,-298.3255 108.1552,-308.9201 114.7795,-306.6577"/>
<text text-anchor="start" x="119" y="-318" font-family="Helvetica,sans-Serif" font-size="10.00" fill="#000000">trig == 1&#39;b1 &#160;&#160;</text>
</g>
<!-- STATE_D -->
<g id="node4" class="node state regular">
<title>STATE_D</title>
<polygon fill="#ffffff" fill-opacity="0.003922" stroke="transparent" stroke-width="2" points="92,-216 16,-216 16,-180 92,-180 92,-216"/>
<text text-anchor="start" x="26.9982" y="-194.2" font-family="Helvetica,sans-Serif" font-size="12.00" fill="#000000">STATE_D</text>
<path fill="none" stroke="#000000" stroke-width="2" d="M28.3333,-181C28.3333,-181 79.6667,-181 79.6667,-181 85.3333,-181 91,-186.6667 91,-192.3333 91,-192.3333 91,-203.6667 91,-203.6667 91,-209.3333 85.3333,-215 79.6667,-215 79.6667,-215 28.3333,-215 28.3333,-215 22.6667,-215 17,-209.3333 17,-203.6667 17,-203.6667 17,-192.3333 17,-192.3333 17,-186.6667 22.6667,-181 28.3333,-181"/>
</g>
<!-- STATE_A&#45;&gt;STATE_D -->
<g id="edge3" class="edge transition">
<title>STATE_A&#45;&gt;STATE_D</title>
<path fill="none" stroke="#000000" d="M69.643,-261.9373C63.8083,-257.2191 58.515,-251.5743 55.08,-245 52.1744,-239.4389 50.9165,-232.9794 50.5787,-226.6626"/>
<polygon fill="#000000" stroke="#000000" points="54.0833,-226.4073 50.7504,-216.3504 47.0843,-226.2907 54.0833,-226.4073"/>
<text text-anchor="start" x="55" y="-236" font-family="Helvetica,sans-Serif" font-size="10.00" fill="#000000">next_sum[8] == 1&#39;b1 &#160;&#160;</text>
</g>
<!-- STATE_R -->
<g id="node6" class="node state regular">
<title>STATE_R</title>
<polygon fill="#ffffff" fill-opacity="0.003922" stroke="transparent" stroke-width="2" points="214,-52 138,-52 138,-16 214,-16 214,-52"/>
<text text-anchor="start" x="148.9982" y="-30.2" font-family="Helvetica,sans-Serif" font-size="12.00" fill="#000000">STATE_R</text>
<path fill="none" stroke="#000000" stroke-width="2" d="M150.3333,-17C150.3333,-17 201.6667,-17 201.6667,-17 207.3333,-17 213,-22.6667 213,-28.3333 213,-28.3333 213,-39.6667 213,-39.6667 213,-45.3333 207.3333,-51 201.6667,-51 201.6667,-51 150.3333,-51 150.3333,-51 144.6667,-51 139,-45.3333 139,-39.6667 139,-39.6667 139,-28.3333 139,-28.3333 139,-22.6667 144.6667,-17 150.3333,-17"/>
</g>
<!-- STATE_A&#45;&gt;STATE_R -->
<g id="edge2" class="edge transition">
<title>STATE_A&#45;&gt;STATE_R</title>
<path fill="none" stroke="#000000" d="M140.0553,-261.8672C146.0676,-257.2259 151.4716,-251.6281 155,-245 155,-245 155,-180 155,-180 156.5167,-176.5436 203.291,-137.3654 205,-134 218.136,-108.1326 222.1023,-95.8033 211,-69 209.7175,-65.9037 208.0134,-62.9385 206.046,-60.1364"/>
<polygon fill="#000000" stroke="#000000" points="208.5875,-57.7178 199.5121,-52.2508 203.1974,-62.1841 208.5875,-57.7178"/>
<text text-anchor="start" x="186" y="-154" font-family="Helvetica,sans-Serif" font-size="10.00" fill="#000000">trig == 1&#39;b0 &#160;&#160;</text>
</g>
<!-- STATE_S -->
<g id="node5" class="node state regular">
<title>STATE_S</title>
<polygon fill="#ffffff" fill-opacity="0.003922" stroke="transparent" stroke-width="2" points="193.5,-134 118.5,-134 118.5,-98 193.5,-98 193.5,-134"/>
<text text-anchor="start" x="129.8282" y="-112.2" font-family="Helvetica,sans-Serif" font-size="12.00" fill="#000000">STATE_S</text>
<path fill="none" stroke="#000000" stroke-width="2" d="M130.8333,-99C130.8333,-99 181.1667,-99 181.1667,-99 186.8333,-99 192.5,-104.6667 192.5,-110.3333 192.5,-110.3333 192.5,-121.6667 192.5,-121.6667 192.5,-127.3333 186.8333,-133 181.1667,-133 181.1667,-133 130.8333,-133 130.8333,-133 125.1667,-133 119.5,-127.3333 119.5,-121.6667 119.5,-121.6667 119.5,-110.3333 119.5,-110.3333 119.5,-104.6667 125.1667,-99 130.8333,-99"/>
</g>
<!-- STATE_D&#45;&gt;STATE_S -->
<g id="edge5" class="edge transition">
<title>STATE_D&#45;&gt;STATE_S</title>
<path fill="none" stroke="#000000" d="M60.2649,-179.6523C64.2827,-170.1124 70.3205,-158.8403 78.628,-151 87.2526,-142.8605 98.096,-136.3805 108.9125,-131.3208"/>
<polygon fill="#000000" stroke="#000000" points="110.5675,-134.4183 118.3545,-127.234 107.787,-127.9942 110.5675,-134.4183"/>
<text text-anchor="start" x="78" y="-154" font-family="Helvetica,sans-Serif" font-size="10.00" fill="#000000">next_sum[7:0] == s &#160;&#160;</text>
</g>
<!-- STATE_D&#45;&gt;STATE_R -->
<g id="edge4" class="edge transition">
<title>STATE_D&#45;&gt;STATE_R</title>
<path fill="none" stroke="#000000" d="M47.5087,-179.8715C41.0988,-158.5879 34.2807,-123.0221 49.655,-98 66.7542,-70.1705 100.127,-53.99 128.2806,-44.8625"/>
<polygon fill="#000000" stroke="#000000" points="129.4313,-48.171 137.986,-41.9206 127.4007,-41.472 129.4313,-48.171"/>
<text text-anchor="start" x="49" y="-113" font-family="Helvetica,sans-Serif" font-size="10.00" fill="#000000">trig == 1&#39;b0 &#160;&#160;</text>
</g>
<!-- STATE_S&#45;&gt;STATE_R -->
<g id="edge6" class="edge transition">
<title>STATE_S&#45;&gt;STATE_R</title>
<path fill="none" stroke="#000000" d="M151.0511,-97.7951C149.4588,-88.9331 148.7617,-78.2265 151.655,-69 152.5271,-66.2191 153.7068,-63.4656 155.0789,-60.797"/>
<polygon fill="#000000" stroke="#000000" points="158.138,-62.502 160.3177,-52.1338 152.1481,-58.8797 158.138,-62.502"/>
<text text-anchor="start" x="151" y="-72" font-family="Helvetica,sans-Serif" font-size="10.00" fill="#000000">trig == 1&#39;b0 &#160;&#160;</text>
</g>
<!-- STATE_R&#45;&gt;STATE_IDLE -->
<g id="edge7" class="edge transition">
<title>STATE_R&#45;&gt;STATE_IDLE</title>
<path fill="none" stroke="#000000" d="M214.1352,-41.6389C243.8168,-48.7154 280,-60.347 280,-75 280,-142.5 280,-142.5 280,-142.5 280,-207.7244 184,-188.2756 184,-253.5 184,-321 184,-321 184,-321 184,-326.4539 182.1642,-331.4527 179.2791,-335.9411"/>
<polygon fill="#000000" stroke="#000000" points="176.3415,-334 172.6446,-343.9289 181.7264,-338.4726 176.3415,-334"/>
<text text-anchor="start" x="262" y="-195" font-family="Helvetica,sans-Serif" font-size="10.00" fill="#000000">next_sum[8] == 1&#39;b1 &#160;&#160;</text>
</g>
</g>
</svg>
