<svg xmlns="http://www.w3.org/2000/svg" xmlns:xlink="http://www.w3.org/1999/xlink" xmlns:s="https://github.com/nturley/netlistsvg" width="707.5" height="512"><style>svg {
  stroke:#000;
  fill:none;
}
text {
  fill:#000;
  stroke:none;
  font-size:10px;
  font-weight: bold;
  font-family: "Courier New", monospace;
}
line {
    stroke-linecap: round;
}
.nodelabel {
  text-anchor: middle;
}
.inputPortLabel {
  text-anchor: end;
}
.splitjoinBody {
  fill:#000;
}</style><g s:type="add" transform="translate(553.5,88)" s:width="25" s:height="25" id="cell_$add$/var/home/jpfau/Dokumente/cd101-tt/src/hdl/oscillator.v:16$2"><s:alias val="$add"/><circle r="12.5" cx="12.5" cy="12.5" fill="#ffc9c3" class="cell_$add$/var/home/jpfau/Dokumente/cd101-tt/src/hdl/oscillator.v:16$2"/><line x1="7.5" x2="17.5" y1="12.5" y2="12.5" class="cell_$add$/var/home/jpfau/Dokumente/cd101-tt/src/hdl/oscillator.v:16$2"/><line x1="12.5" x2="12.5" y1="7.5" y2="17.5" class="cell_$add$/var/home/jpfau/Dokumente/cd101-tt/src/hdl/oscillator.v:16$2"/><g s:x="2" s:y="5" s:pid="A"/><g s:x="2" s:y="20" s:pid="B"/><g s:x="26" s:y="12.5" s:pid="Y"/></g><g s:type="not" transform="translate(654.5,480)" s:width="30" s:height="20" id="cell_$eq$/var/home/jpfau/Dokumente/cd101-tt/src/hdl/oscillator.v:17$3"><s:alias val="$_NOT_"/><s:alias val="$not"/><s:alias val="$logic_not"/><path d="M0,0 L0,20 L20,10 Z" fill="#eebaff" class="cell_$eq$/var/home/jpfau/Dokumente/cd101-tt/src/hdl/oscillator.v:17$3"/><circle cx="24" cy="10" r="3" fill="#eebaff" class="cell_$eq$/var/home/jpfau/Dokumente/cd101-tt/src/hdl/oscillator.v:17$3"/><g s:x="-1" s:y="10" s:pid="A"/><g s:x="27" s:y="10" s:pid="Y"/></g><g s:type="eq" transform="translate(227.5,153)" s:width="25" s:height="25" id="cell_$eq$/var/home/jpfau/Dokumente/cd101-tt/src/hdl/oscillator.v:21$4"><s:alias val="$eq"/><circle r="12.5" cx="12.5" cy="12.5" fill="#ffc9c3" class="cell_$eq$/var/home/jpfau/Dokumente/cd101-tt/src/hdl/oscillator.v:21$4"/><line x1="7.5" x2="17.5" y1="10" y2="10" class="cell_$eq$/var/home/jpfau/Dokumente/cd101-tt/src/hdl/oscillator.v:21$4"/><line x1="7.5" x2="17.5" y1="15" y2="15" class="cell_$eq$/var/home/jpfau/Dokumente/cd101-tt/src/hdl/oscillator.v:21$4"/><g s:x="2" s:y="5" s:pid="A"/><g s:x="2" s:y="20" s:pid="B"/><g s:x="25" s:y="12.5" s:pid="Y"/></g><g s:type="not" transform="translate(654.5,368)" s:width="30" s:height="20" id="cell_$eq$/var/home/jpfau/Dokumente/cd101-tt/src/hdl/oscillator.v:29$7"><s:alias val="$_NOT_"/><s:alias val="$not"/><s:alias val="$logic_not"/><path d="M0,0 L0,20 L20,10 Z" fill="#eebaff" class="cell_$eq$/var/home/jpfau/Dokumente/cd101-tt/src/hdl/oscillator.v:29$7"/><circle cx="24" cy="10" r="3" fill="#eebaff" class="cell_$eq$/var/home/jpfau/Dokumente/cd101-tt/src/hdl/oscillator.v:29$7"/><g s:x="-1" s:y="10" s:pid="A"/><g s:x="27" s:y="10" s:pid="Y"/></g><g s:type="not" transform="translate(354.5,449)" s:width="30" s:height="20" id="cell_$logic_not$/var/home/jpfau/Dokumente/cd101-tt/src/hdl/oscillator.v:23$5"><s:alias val="$_NOT_"/><s:alias val="$not"/><s:alias val="$logic_not"/><path d="M0,0 L0,20 L20,10 Z" fill="#eebaff" class="cell_$logic_not$/var/home/jpfau/Dokumente/cd101-tt/src/hdl/oscillator.v:23$5"/><circle cx="24" cy="10" r="3" fill="#eebaff" class="cell_$logic_not$/var/home/jpfau/Dokumente/cd101-tt/src/hdl/oscillator.v:23$5"/><g s:x="-1" s:y="10" s:pid="A"/><g s:x="27" s:y="10" s:pid="Y"/></g><g s:type="dff" transform="translate(420.5,83)" s:width="30" s:height="40" id="cell_$procdff$19"><s:alias val="$dff"/><s:alias val="$_DFF_"/><s:alias val="$_DFF_P_"/><s:alias val="dff-bus"/><s:alias val="$dff-bus"/><s:alias val="$_DFF_-bus"/><s:alias val="$_DFF_P_-bus"/><rect width="30" height="40" x="0" y="0" fill="#ffef8b" class="cell_$procdff$19"/><path d="M0,35 L5,30 L0,25" class="cell_$procdff$19"/><g s:x="31" s:y="10" s:pid="Q"/><g s:x="-1" s:y="30" s:pid="CLK"/><g s:x="-1" s:y="30" s:pid="C"/><g s:x="-1" s:y="10" s:pid="D"/></g><g s:type="dff" transform="translate(487.5,358)" s:width="30" s:height="40" id="cell_$procdff$20"><s:alias val="$dff"/><s:alias val="$_DFF_"/><s:alias val="$_DFF_P_"/><s:alias val="dff-bus"/><s:alias val="$dff-bus"/><s:alias val="$_DFF_-bus"/><s:alias val="$_DFF_P_-bus"/><rect width="30" height="40" x="0" y="0" fill="#ffef8b" class="cell_$procdff$20"/><path d="M0,35 L5,30 L0,25" class="cell_$procdff$20"/><g s:x="31" s:y="10" s:pid="Q"/><g s:x="-1" s:y="30" s:pid="CLK"/><g s:x="-1" s:y="30" s:pid="C"/><g s:x="-1" s:y="10" s:pid="D"/></g><g s:type="mux-bus" transform="translate(168,63)" s:width="24" s:height="40" id="cell_$procmux$11"><s:alias val="$pmux-bus"/><s:alias val="$mux-bus"/><s:alias val="$_MUX_-bus"/><path d="M8,2 L8,0 L24,8 L24,32 L8,40 L8,38" fill="#ffffff" class="cell_$procmux$11"/><path d="M4,2 L4,0 L22,9 L22,31 L4,40 L4,38" fill="#ffffff" class="cell_$procmux$11"/><path d="M0,0 L20,10 L20,30 L0,40 Z" fill="#ffffff" class="cell_$procmux$11"/><text x="5" y="32" class="nodelabel cell_$procmux$11" s:attribute="">1</text><text x="5" y="13" class="nodelabel cell_$procmux$11" s:attribute="">0</text><g s:x="-1" s:y="10" s:pid="A"/><g s:x="-1" s:y="30" s:pid="B"/><g s:x="12" s:y="38" s:pid="S"/><g s:x="24.5" s:y="20" s:pid="Y"/></g><g s:type="mux-bus" transform="translate(290.1666666666667,73)" s:width="24" s:height="40" id="cell_$procmux$13"><s:alias val="$pmux-bus"/><s:alias val="$mux-bus"/><s:alias val="$_MUX_-bus"/><path d="M8,2 L8,0 L24,8 L24,32 L8,40 L8,38" fill="#ffffff" class="cell_$procmux$13"/><path d="M4,2 L4,0 L22,9 L22,31 L4,40 L4,38" fill="#ffffff" class="cell_$procmux$13"/><path d="M0,0 L20,10 L20,30 L0,40 Z" fill="#ffffff" class="cell_$procmux$13"/><text x="5" y="32" class="nodelabel cell_$procmux$13" s:attribute="">1</text><text x="5" y="13" class="nodelabel cell_$procmux$13" s:attribute="">0</text><g s:x="-1" s:y="10" s:pid="A"/><g s:x="-1" s:y="30" s:pid="B"/><g s:x="12" s:y="38" s:pid="S"/><g s:x="24.5" s:y="20" s:pid="Y"/></g><g s:type="mux" transform="translate(360.8333333333333,338)" s:width="20" s:height="40" id="cell_$procmux$15"><s:alias val="$pmux"/><s:alias val="$mux"/><s:alias val="$_MUX_"/><path d="M0,0 L20,10 L20,30 L0,40 Z" fill="#ffffff" class="cell_$procmux$15"/><text x="5" y="32" class="nodelabel cell_$procmux$15" s:attribute="">1</text><text x="5" y="13" class="nodelabel cell_$procmux$15" s:attribute="">0</text><g s:x="0" s:y="10" s:pid="A"/><g s:x="0" s:y="30" s:pid="B"/><g s:x="10" s:y="35" s:pid="S"/><g s:x="20" s:y="20" s:pid="Y"/></g><g s:type="mux" transform="translate(423.8333333333333,348)" s:width="20" s:height="40" id="cell_$procmux$17"><s:alias val="$pmux"/><s:alias val="$mux"/><s:alias val="$_MUX_"/><path d="M0,0 L20,10 L20,30 L0,40 Z" fill="#ffffff" class="cell_$procmux$17"/><text x="5" y="32" class="nodelabel cell_$procmux$17" s:attribute="">1</text><text x="5" y="13" class="nodelabel cell_$procmux$17" s:attribute="">0</text><g s:x="0" s:y="10" s:pid="A"/><g s:x="0" s:y="30" s:pid="B"/><g s:x="10" s:y="35" s:pid="S"/><g s:x="20" s:y="20" s:pid="Y"/></g><g s:type="mux-bus" transform="translate(554.5,233)" s:width="24" s:height="40" id="cell_$procmux$9"><s:alias val="$pmux-bus"/><s:alias val="$mux-bus"/><s:alias val="$_MUX_-bus"/><path d="M8,2 L8,0 L24,8 L24,32 L8,40 L8,38" fill="#ffffff" class="cell_$procmux$9"/><path d="M4,2 L4,0 L22,9 L22,31 L4,40 L4,38" fill="#ffffff" class="cell_$procmux$9"/><path d="M0,0 L20,10 L20,30 L0,40 Z" fill="#ffffff" class="cell_$procmux$9"/><text x="5" y="32" class="nodelabel cell_$procmux$9" s:attribute="">1</text><text x="5" y="13" class="nodelabel cell_$procmux$9" s:attribute="">0</text><g s:x="-1" s:y="10" s:pid="A"/><g s:x="-1" s:y="30" s:pid="B"/><g s:x="12" s:y="38" s:pid="S"/><g s:x="24.5" s:y="20" s:pid="Y"/></g><g s:type="inputExt" transform="translate(354.5,408)" s:width="30" s:height="20" id="cell_clk"><text x="15" y="-4" class="nodelabel cell_clk" s:attribute="ref">clk</text><s:alias val="$_inputExt_"/><path d="M0,0 L0,20 L15,20 L30,10 L15,0 Z" fill="#8bcaff" class="cell_clk"/><g s:x="30" s:y="10" s:pid="Y"/></g><g s:type="inputExt" transform="translate(78,228)" s:width="30" s:height="20" id="cell_rstn"><text x="15" y="-4" class="nodelabel cell_rstn" s:attribute="ref">rstn</text><s:alias val="$_inputExt_"/><path d="M0,0 L0,20 L15,20 L30,10 L15,0 Z" fill="#8bcaff" class="cell_rstn"/><g s:x="30" s:y="10" s:pid="Y"/></g><g s:type="inputExt" transform="translate(78,163)" s:width="30" s:height="20" id="cell_count_max"><text x="15" y="-4" class="nodelabel cell_count_max" s:attribute="ref">count_max</text><s:alias val="$_inputExt_"/><path d="M0,0 L0,20 L15,20 L30,10 L15,0 Z" fill="#8bcaff" class="cell_count_max"/><g s:x="30" s:y="10" s:pid="Y"/></g><g s:type="outputExt" transform="translate(654.5,243)" s:width="30" s:height="20" id="cell_data"><text x="15" y="-4" class="nodelabel cell_data" s:attribute="ref">data</text><s:alias val="$_outputExt_"/><path d="M30,0 L30,20 L15,20 L0,10 L15,0 Z" fill="#169300" class="cell_data"/><g s:x="0" s:y="10" s:pid="A"/></g><g s:type="constant" transform="translate(420.5,168)" s:width="30" s:height="20" id="cell_00000000000000000000000000000001"><text x="15" y="-4" class="nodelabel cell_00000000000000000000000000000001" s:attribute="ref">0x1</text><s:alias val="$_constant_"/><rect width="30" height="20" fill="#745bff" class="cell_00000000000000000000000000000001"/><g s:x="31" s:y="10" s:pid="Y"/></g><g s:type="constant" transform="translate(12,63)" s:width="30" s:height="20" id="cell_000000000000"><text x="15" y="-4" class="nodelabel cell_000000000000" s:attribute="ref">0x0</text><s:alias val="$_constant_"/><rect width="30" height="20" fill="#745bff" class="cell_000000000000"/><g s:x="31" s:y="10" s:pid="Y"/></g><g s:type="constant" transform="translate(287.5,338)" s:width="30" s:height="20" id="cell_0"><text x="15" y="-4" class="nodelabel cell_0" s:attribute="ref">0</text><s:alias val="$_constant_"/><rect width="30" height="20" fill="#745bff" class="cell_0"/><g s:x="31" s:y="10" s:pid="Y"/></g><g s:type="constant" transform="translate(420.5,233)" s:width="30" s:height="20" id="cell_00000000"><text x="15" y="-4" class="nodelabel cell_00000000" s:attribute="ref">0x0</text><s:alias val="$_constant_"/><rect width="30" height="20" fill="#745bff" class="cell_00000000"/><g s:x="31" s:y="10" s:pid="Y"/></g><g s:type="constant" transform="translate(420.5,298)" s:width="30" s:height="20" id="cell_11111111"><text x="15" y="-4" class="nodelabel cell_11111111" s:attribute="ref">0xff</text><s:alias val="$_constant_"/><rect width="30" height="20" fill="#745bff" class="cell_11111111"/><g s:x="31" s:y="10" s:pid="Y"/></g><g s:type="split" transform="translate(654.5,90)" s:width="5" s:height="40" id="cell_$split$,36,37,38,39,40,41,42,43,44,45,46,47,48,49,50,51,52,53,54,55,56,57,58,59,60,61,62,63,64,65,66,67,"><rect width="5" height="20" class="splitjoinBody" s:generic="body"/><s:alias val="$_split_"/><g s:x="-1" s:y="20" s:pid="in"/><g transform="translate(5,10)" s:x="5" s:y="10" s:pid="out0"><text x="5" y="-4">0:11</text></g></g><line x1="451.5" x2="555.5" y1="93" y2="93" class="net_24,25,26,27,28,29,30,31,32,33,34,35 width_12" style="stroke-width: 2"/><line x1="451.5" x2="461.5" y1="93" y2="93" class="net_24,25,26,27,28,29,30,31,32,33,34,35 width_12" style="stroke-width: 2"/><line x1="461.5" x2="461.5" y1="93" y2="32" class="net_24,25,26,27,28,29,30,31,32,33,34,35 width_12" style="stroke-width: 2"/><line x1="461.5" x2="202.5" y1="32" y2="32" class="net_24,25,26,27,28,29,30,31,32,33,34,35 width_12" style="stroke-width: 2"/><line x1="202.5" x2="202.5" y1="32" y2="158" class="net_24,25,26,27,28,29,30,31,32,33,34,35 width_12" style="stroke-width: 2"/><circle cx="461.5" cy="93" r="3" style="fill:#000" class="net_24,25,26,27,28,29,30,31,32,33,34,35 width_12"/><line x1="202.5" x2="229.5" y1="158" y2="158" class="net_24,25,26,27,28,29,30,31,32,33,34,35 width_12" style="stroke-width: 2"/><line x1="451.5" x2="528.5" y1="178" y2="178" class="net_99,100,101,102,103,104,105,106,107,108,109,110,111,112,113,114,115,116,117,118,119,120,121,122,123,124,125,126,127,128,129,130 width_32" style="stroke-width: 2"/><line x1="528.5" x2="528.5" y1="178" y2="108" class="net_99,100,101,102,103,104,105,106,107,108,109,110,111,112,113,114,115,116,117,118,119,120,121,122,123,124,125,126,127,128,129,130 width_32" style="stroke-width: 2"/><line x1="528.5" x2="555.5" y1="108" y2="108" class="net_99,100,101,102,103,104,105,106,107,108,109,110,111,112,113,114,115,116,117,118,119,120,121,122,123,124,125,126,127,128,129,130 width_32" style="stroke-width: 2"/><line x1="108" x2="142" y1="238" y2="238" class="net_3 width_1" style="stroke-width: 1"/><line x1="142" x2="142" y1="238" y2="388" class="net_3 width_1" style="stroke-width: 1"/><line x1="142" x2="262.5" y1="388" y2="388" class="net_3 width_1" style="stroke-width: 1"/><line x1="262.5" x2="262.5" y1="388" y2="490" class="net_3 width_1" style="stroke-width: 1"/><circle cx="142" cy="238" r="2" style="fill:#000" class="net_3 width_1"/><circle cx="262.5" cy="388" r="2" style="fill:#000" class="net_3 width_1"/><line x1="262.5" x2="653.5" y1="490" y2="490" class="net_3 width_1" style="stroke-width: 1"/><line x1="108" x2="180" y1="238" y2="238" class="net_3 width_1" style="stroke-width: 1"/><line x1="180" x2="180" y1="238" y2="101" class="net_3 width_1" style="stroke-width: 1"/><line x1="108" x2="142" y1="238" y2="238" class="net_3 width_1" style="stroke-width: 1"/><line x1="142" x2="142" y1="238" y2="388" class="net_3 width_1" style="stroke-width: 1"/><line x1="142" x2="370.8333333333333" y1="388" y2="388" class="net_3 width_1" style="stroke-width: 1"/><line x1="370.8333333333333" x2="370.8333333333333" y1="388" y2="373" class="net_3 width_1" style="stroke-width: 1"/><line x1="108" x2="229.5" y1="173" y2="173" class="net_4,5,6,7,8,9,10,11,12,13,14,15 width_12" style="stroke-width: 2"/><line x1="518.5" x2="528.5" y1="368" y2="368" class="net_70 width_1" style="stroke-width: 1"/><line x1="528.5" x2="528.5" y1="368" y2="378" class="net_70 width_1" style="stroke-width: 1"/><circle cx="528.5" cy="378" r="2" style="fill:#000" class="net_70 width_1"/><line x1="528.5" x2="653.5" y1="378" y2="378" class="net_70 width_1" style="stroke-width: 1"/><line x1="518.5" x2="528.5" y1="368" y2="368" class="net_70 width_1" style="stroke-width: 1"/><line x1="528.5" x2="528.5" y1="368" y2="479" class="net_70 width_1" style="stroke-width: 1"/><line x1="528.5" x2="328.5" y1="479" y2="479" class="net_70 width_1" style="stroke-width: 1"/><line x1="328.5" x2="328.5" y1="479" y2="459" class="net_70 width_1" style="stroke-width: 1"/><line x1="328.5" x2="353.5" y1="459" y2="459" class="net_70 width_1" style="stroke-width: 1"/><line x1="518.5" x2="528.5" y1="368" y2="368" class="net_70 width_1" style="stroke-width: 1"/><line x1="528.5" x2="528.5" y1="368" y2="328" class="net_70 width_1" style="stroke-width: 1"/><line x1="528.5" x2="328.5" y1="328" y2="328" class="net_70 width_1" style="stroke-width: 1"/><line x1="328.5" x2="328.5" y1="328" y2="368" class="net_70 width_1" style="stroke-width: 1"/><circle cx="528.5" cy="368" r="2" style="fill:#000" class="net_70 width_1"/><line x1="328.5" x2="360.8333333333333" y1="368" y2="368" class="net_70 width_1" style="stroke-width: 1"/><line x1="518.5" x2="566.5" y1="368" y2="368" class="net_70 width_1" style="stroke-width: 1"/><line x1="566.5" x2="566.5" y1="368" y2="271" class="net_70 width_1" style="stroke-width: 1"/><line x1="384.5" x2="394.5" y1="418" y2="418" class="net_2 width_1" style="stroke-width: 1"/><line x1="394.5" x2="394.5" y1="418" y2="113" class="net_2 width_1" style="stroke-width: 1"/><circle cx="394.5" cy="418" r="2" style="fill:#000" class="net_2 width_1"/><line x1="394.5" x2="419.5" y1="113" y2="113" class="net_2 width_1" style="stroke-width: 1"/><line x1="384.5" x2="394.5" y1="418" y2="418" class="net_2 width_1" style="stroke-width: 1"/><line x1="394.5" x2="394.5" y1="418" y2="448" class="net_2 width_1" style="stroke-width: 1"/><line x1="394.5" x2="461.5" y1="448" y2="448" class="net_2 width_1" style="stroke-width: 1"/><line x1="461.5" x2="461.5" y1="448" y2="388" class="net_2 width_1" style="stroke-width: 1"/><line x1="461.5" x2="486.5" y1="388" y2="388" class="net_2 width_1" style="stroke-width: 1"/><line x1="314.6666666666667" x2="419.5" y1="93" y2="93" class="net_73,74,75,76,77,78,79,80,81,82,83,84 width_12" style="stroke-width: 2"/><line x1="443.8333333333333" x2="486.5" y1="368" y2="368" class="net_85 width_1" style="stroke-width: 1"/><line x1="43" x2="167" y1="73" y2="73" class="net_131,132,133,134,135,136,137,138,139,140,141,142 width_12" style="stroke-width: 2"/><line x1="43" x2="53" y1="73" y2="73" class="net_131,132,133,134,135,136,137,138,139,140,141,142 width_12" style="stroke-width: 2"/><line x1="53" x2="53" y1="73" y2="142" class="net_131,132,133,134,135,136,137,138,139,140,141,142 width_12" style="stroke-width: 2"/><line x1="53" x2="262.5" y1="142" y2="142" class="net_131,132,133,134,135,136,137,138,139,140,141,142 width_12" style="stroke-width: 2"/><line x1="262.5" x2="262.5" y1="142" y2="103" class="net_131,132,133,134,135,136,137,138,139,140,141,142 width_12" style="stroke-width: 2"/><circle cx="53" cy="73" r="3" style="fill:#000" class="net_131,132,133,134,135,136,137,138,139,140,141,142 width_12"/><line x1="262.5" x2="289.1666666666667" y1="103" y2="103" class="net_131,132,133,134,135,136,137,138,139,140,141,142 width_12" style="stroke-width: 2"/><line x1="660.5" x2="695.5" y1="100.5" y2="100.5" class="net_36,37,38,39,40,41,42,43,44,45,46,47 width_12" style="stroke-width: 2"/><line x1="695.5" x2="695.5" y1="100.5" y2="16" class="net_36,37,38,39,40,41,42,43,44,45,46,47 width_12" style="stroke-width: 2"/><line x1="695.5" x2="142" y1="16" y2="16" class="net_36,37,38,39,40,41,42,43,44,45,46,47 width_12" style="stroke-width: 2"/><line x1="142" x2="142" y1="16" y2="93" class="net_36,37,38,39,40,41,42,43,44,45,46,47 width_12" style="stroke-width: 2"/><line x1="142" x2="167" y1="93" y2="93" class="net_36,37,38,39,40,41,42,43,44,45,46,47 width_12" style="stroke-width: 2"/><line x1="192.5" x2="289.1666666666667" y1="83" y2="83" class="net_86,87,88,89,90,91,92,93,94,95,96,97 width_12" style="stroke-width: 2"/><line x1="252.5" x2="302.1666666666667" y1="165.5" y2="165.5" class="net_69 width_1" style="stroke-width: 1"/><line x1="302.1666666666667" x2="302.1666666666667" y1="165.5" y2="111" class="net_69 width_1" style="stroke-width: 1"/><line x1="252.5" x2="272.5" y1="165.5" y2="165.5" class="net_69 width_1" style="stroke-width: 1"/><line x1="272.5" x2="272.5" y1="165.5" y2="438" class="net_69 width_1" style="stroke-width: 1"/><line x1="272.5" x2="433.8333333333333" y1="438" y2="438" class="net_69 width_1" style="stroke-width: 1"/><circle cx="272.5" cy="165.5" r="2" style="fill:#000" class="net_69 width_1"/><line x1="433.8333333333333" x2="433.8333333333333" y1="438" y2="383" class="net_69 width_1" style="stroke-width: 1"/><line x1="318.5" x2="360.8333333333333" y1="348" y2="348" class="net_155 width_1" style="stroke-width: 1"/><line x1="380.8333333333333" x2="423.8333333333333" y1="358" y2="358" class="net_98 width_1" style="stroke-width: 1"/><line x1="381.5" x2="404.5" y1="459" y2="459" class="net_72 width_1" style="stroke-width: 1"/><line x1="404.5" x2="404.5" y1="459" y2="378" class="net_72 width_1" style="stroke-width: 1"/><line x1="404.5" x2="423.8333333333333" y1="378" y2="378" class="net_72 width_1" style="stroke-width: 1"/><line x1="451.5" x2="553.5" y1="243" y2="243" class="net_156,157,158,159,160,161,162,163 width_8" style="stroke-width: 2"/><line x1="451.5" x2="528.5" y1="308" y2="308" class="net_164,165,166,167,168,169,170,171 width_8" style="stroke-width: 2"/><line x1="528.5" x2="528.5" y1="308" y2="263" class="net_164,165,166,167,168,169,170,171 width_8" style="stroke-width: 2"/><line x1="528.5" x2="553.5" y1="263" y2="263" class="net_164,165,166,167,168,169,170,171 width_8" style="stroke-width: 2"/><line x1="579" x2="654.5" y1="253" y2="253" class="net_16,17,18,19,20,21,22,23 width_8" style="stroke-width: 2"/><line x1="579.5" x2="653.5" y1="100.5" y2="100.5" class="net_36,37,38,39,40,41,42,43,44,45,46,47,48,49,50,51,52,53,54,55,56,57,58,59,60,61,62,63,64,65,66,67 width_32" style="stroke-width: 2"/><rect x="302" y="27" width="22" height="9" class="net_24,25,26,27,28,29,30,31,32,33,34,35 width_12 busLabel_12" style="fill: white; stroke: none"/><text x="301" y="35" class="net_24,25,26,27,28,29,30,31,32,33,34,35 width_12 busLabel_12">/12/</text><rect x="302" y="27" width="22" height="9" class="net_24,25,26,27,28,29,30,31,32,33,34,35 width_12 busLabel_12" style="fill: white; stroke: none"/><text x="301" y="35" class="net_24,25,26,27,28,29,30,31,32,33,34,35 width_12 busLabel_12">/12/</text><rect x="501.5" y="173" width="22" height="9" class="net_99,100,101,102,103,104,105,106,107,108,109,110,111,112,113,114,115,116,117,118,119,120,121,122,123,124,125,126,127,128,129,130 width_32 busLabel_32" style="fill: white; stroke: none"/><text x="500.5" y="181" class="net_99,100,101,102,103,104,105,106,107,108,109,110,111,112,113,114,115,116,117,118,119,120,121,122,123,124,125,126,127,128,129,130 width_32 busLabel_32">/32/</text><rect x="178.75" y="168" width="22" height="9" class="net_4,5,6,7,8,9,10,11,12,13,14,15 width_12 busLabel_12" style="fill: white; stroke: none"/><text x="177.75" y="176" class="net_4,5,6,7,8,9,10,11,12,13,14,15 width_12 busLabel_12">/12/</text><rect x="368" y="88" width="22" height="9" class="net_73,74,75,76,77,78,79,80,81,82,83,84 width_12 busLabel_12" style="fill: white; stroke: none"/><text x="367" y="96" class="net_73,74,75,76,77,78,79,80,81,82,83,84 width_12 busLabel_12">/12/</text><rect x="178.75" y="137" width="22" height="9" class="net_131,132,133,134,135,136,137,138,139,140,141,142 width_12 busLabel_12" style="fill: white; stroke: none"/><text x="177.75" y="145" class="net_131,132,133,134,135,136,137,138,139,140,141,142 width_12 busLabel_12">/12/</text><rect x="178.75" y="137" width="22" height="9" class="net_131,132,133,134,135,136,137,138,139,140,141,142 width_12 busLabel_12" style="fill: white; stroke: none"/><text x="177.75" y="145" class="net_131,132,133,134,135,136,137,138,139,140,141,142 width_12 busLabel_12">/12/</text><rect x="434.5" y="11" width="22" height="9" class="net_36,37,38,39,40,41,42,43,44,45,46,47 width_12 busLabel_12" style="fill: white; stroke: none"/><text x="433.5" y="19" class="net_36,37,38,39,40,41,42,43,44,45,46,47 width_12 busLabel_12">/12/</text><rect x="239" y="78" width="22" height="9" class="net_86,87,88,89,90,91,92,93,94,95,96,97 width_12 busLabel_12" style="fill: white; stroke: none"/><text x="238" y="86" class="net_86,87,88,89,90,91,92,93,94,95,96,97 width_12 busLabel_12">/12/</text><rect x="501.5" y="238" width="16" height="9" class="net_156,157,158,159,160,161,162,163 width_8 busLabel_8" style="fill: white; stroke: none"/><text x="500.5" y="246" class="net_156,157,158,159,160,161,162,163 width_8 busLabel_8">/8/</text><rect x="501.5" y="303" width="16" height="9" class="net_164,165,166,167,168,169,170,171 width_8 busLabel_8" style="fill: white; stroke: none"/><text x="500.5" y="311" class="net_164,165,166,167,168,169,170,171 width_8 busLabel_8">/8/</text><rect x="615.5" y="248" width="16" height="9" class="net_16,17,18,19,20,21,22,23 width_8 busLabel_8" style="fill: white; stroke: none"/><text x="614.5" y="256" class="net_16,17,18,19,20,21,22,23 width_8 busLabel_8">/8/</text><rect x="615.5" y="95.5" width="22" height="9" class="net_36,37,38,39,40,41,42,43,44,45,46,47,48,49,50,51,52,53,54,55,56,57,58,59,60,61,62,63,64,65,66,67 width_32 busLabel_32" style="fill: white; stroke: none"/><text x="614.5" y="103.5" class="net_36,37,38,39,40,41,42,43,44,45,46,47,48,49,50,51,52,53,54,55,56,57,58,59,60,61,62,63,64,65,66,67 width_32 busLabel_32">/32/</text></svg>